<!-- Generator: Adobe Illustrator 20.1.0, SVG Export Plug-In  -->
<svg version="1.1"
	 xmlns="http://www.w3.org/2000/svg" xmlns:xlink="http://www.w3.org/1999/xlink" xmlns:a="http://ns.adobe.com/AdobeSVGViewerExtensions/3.0/"
	 x="0px" y="0px" width="599.64px" height="150.224px" viewBox="0 0 599.64 150.224"
	 style="enable-background:new 0 0 599.64 150.224;" xml:space="preserve">
<style type="text/css">
	.st0{fill:#6F6F6E;}
	.st1{fill:#93C01F;}
	.st2{fill:#95C11F;}
	.st3{fill:#2E3E91;}
	.st4{fill:#BD1622;}
	.st5{fill-rule:evenodd;clip-rule:evenodd;fill:#FFFFFF;}
	.st6{fill:#FFED00;}
	.st7{fill:#FFFFFF;}
</style>
<defs>
</defs>
<g>
	<g>
		<g>
			<polygon class="st0" points="68.402,110.765 68.325,124.046 0,124.046 0,13.805 68.325,13.805 68.325,27.085 16.429,27.085 
				16.429,62.016 58.191,62.016 58.191,74.836 16.429,74.836 16.429,110.765 			"/>
		</g>
		<g>
			<g>
				<path class="st0" d="M232.533,60.634c-0.46,0.564-0.909,1.012-1.344,1.344c-0.435,0.334-1.062,0.499-1.881,0.499
					c-0.818,0-1.676-0.319-2.571-0.96c-0.896-0.639-2.022-1.329-3.378-2.072c-1.357-0.741-2.994-1.432-4.913-2.073
					c-1.92-0.639-4.288-0.959-7.101-0.959c-3.685,0-6.935,0.666-9.75,1.996c-2.815,1.332-5.157,3.224-7.024,5.681
					c-1.869,2.457-3.289,5.451-4.261,8.982c-0.973,3.532-1.459,7.498-1.459,11.899c0,4.555,0.51,8.611,1.535,12.168
					c1.023,3.558,2.482,6.552,4.376,8.982c1.893,2.431,4.196,4.274,6.91,5.528c2.711,1.254,5.73,1.881,9.059,1.881
					c3.224,0,5.885-0.396,7.984-1.19c2.097-0.792,3.838-1.65,5.22-2.571c1.382-0.922,2.534-1.778,3.455-2.572
					c0.921-0.793,1.867-1.19,2.841-1.19c1.228,0,2.174,0.46,2.841,1.382l4.299,5.528c-1.792,2.201-3.801,4.068-6.027,5.604
					c-2.226,1.535-4.594,2.791-7.101,3.762c-2.509,0.972-5.132,1.689-7.87,2.149c-2.739,0.46-5.515,0.691-8.329,0.691
					c-4.863,0-9.405-0.896-13.627-2.686c-4.222-1.791-7.882-4.401-10.978-7.83c-3.097-3.429-5.54-7.639-7.332-12.629
					c-1.791-4.99-2.687-10.658-2.687-17.004c0-5.783,0.806-11.132,2.419-16.045c1.613-4.913,3.992-9.147,7.14-12.705
					c3.147-3.557,7.025-6.346,11.63-8.368c4.607-2.021,9.878-3.032,15.815-3.032c5.578,0,10.492,0.897,14.74,2.687
					c4.248,1.792,8.035,4.326,11.362,7.6L232.533,60.634z"/>
			</g>
			<g>
				<path class="st1" d="M293.966,86.144c-0.63,2.419-0.937,4.383-0.92,5.89c0.017,1.51,0.257,2.694,0.721,3.555
					c0.465,0.862,1.111,1.45,1.939,1.765c0.828,0.315,1.741,0.472,2.735,0.472c1.558,0,3.041-0.455,4.449-1.367
					c1.409-0.911,2.643-2.203,3.704-3.878c1.061-1.673,1.906-3.67,2.535-5.991c0.63-2.319,0.945-4.872,0.945-7.656
					c0-4.507-0.721-8.468-2.163-11.882c-1.442-3.414-3.431-6.247-5.966-8.501c-2.536-2.253-5.528-3.952-8.974-5.097
					c-3.448-1.143-7.192-1.715-11.236-1.715c-4.408,0-8.535,0.837-12.379,2.51c-3.846,1.674-7.184,3.986-10.018,6.935
					c-2.834,2.951-5.071,6.438-6.712,10.465c-1.64,4.027-2.46,8.394-2.46,13.1c0,5.568,0.877,10.473,2.635,14.716
					c1.756,4.243,4.151,7.78,7.184,10.613c3.032,2.834,6.604,4.972,10.713,6.414c4.109,1.441,8.518,2.162,13.224,2.162
					c5.038,0,9.479-0.53,13.324-1.59c3.845-1.061,7.109-2.404,9.794-4.027c0.728-0.43,1.359-0.563,1.889-0.397
					c0.53,0.166,0.927,0.579,1.193,1.243l1.342,3.579c-3.514,2.319-7.557,4.176-12.13,5.568c-4.574,1.392-9.712,2.088-15.412,2.088
					c-5.833,0-11.236-0.92-16.207-2.76c-4.971-1.839-9.289-4.491-12.951-7.954c-3.662-3.464-6.529-7.689-8.6-12.678
					c-2.072-4.988-3.107-10.647-3.107-16.978c0-3.579,0.455-7.043,1.368-10.391c0.911-3.348,2.195-6.479,3.852-9.397
					c1.657-2.916,3.662-5.584,6.016-8.004c2.354-2.419,4.955-4.491,7.805-6.214c2.851-1.723,5.932-3.058,9.247-4.002
					c3.313-0.944,6.778-1.417,10.391-1.417c3.082,0,6.097,0.34,9.048,1.019c2.949,0.68,5.725,1.674,8.327,2.983
					c2.601,1.309,5.004,2.916,7.208,4.822c2.204,1.907,4.093,4.11,5.668,6.612c1.574,2.503,2.809,5.27,3.704,8.303
					c0.895,3.032,1.343,6.322,1.343,9.868c0,3.58-0.515,6.895-1.541,9.943c-1.028,3.05-2.436,5.693-4.227,7.93
					c-1.789,2.238-3.902,3.995-6.338,5.27c-2.436,1.276-5.063,1.914-7.88,1.914c-2.486,0-4.566-0.596-6.24-1.79
					c-1.674-1.193-2.759-3.049-3.256-5.568c-1.922,2.585-4.002,4.433-6.239,5.544c-2.238,1.11-4.649,1.665-7.233,1.665
					c-1.989,0-3.729-0.348-5.221-1.044c-1.491-0.696-2.734-1.656-3.729-2.883c-0.994-1.226-1.732-2.676-2.212-4.35
					c-0.481-1.673-0.721-3.488-0.721-5.443c0-2.817,0.539-5.659,1.616-8.527c1.077-2.866,2.685-5.46,4.822-7.78
					c2.138-2.319,4.797-4.208,7.979-5.667c3.183-1.459,6.878-2.188,11.087-2.188c2.287,0,4.292,0.183,6.016,0.546
					c1.723,0.365,3.363,0.879,4.921,1.541L293.966,86.144z M290.138,72.571c-1.26-0.265-2.585-0.398-3.977-0.398
					c-2.386,0-4.583,0.505-6.588,1.516c-2.005,1.012-3.737,2.337-5.195,3.977c-1.459,1.64-2.594,3.53-3.405,5.668
					c-0.813,2.138-1.218,4.318-1.218,6.537c0,2.321,0.522,4.169,1.566,5.544c1.044,1.376,2.593,2.063,4.649,2.063
					c0.994,0,1.996-0.157,3.007-0.472c1.011-0.315,1.972-0.87,2.883-1.665c0.912-0.796,1.766-1.856,2.561-3.182
					c0.796-1.325,1.458-3.016,1.988-5.071L290.138,72.571z"/>
			</g>
			<g>
				<path class="st2" d="M283.923,125.955c-5.904,0-11.455-0.946-16.497-2.812c-5.054-1.869-9.507-4.605-13.234-8.13
					c-3.731-3.528-6.691-7.89-8.798-12.964c-2.104-5.067-3.171-10.887-3.171-17.297c0-3.64,0.47-7.209,1.397-10.61
					c0.924-3.398,2.247-6.624,3.931-9.59c1.686-2.964,3.752-5.714,6.143-8.173c2.395-2.461,5.077-4.596,7.972-6.346
					c2.905-1.756,6.084-3.132,9.45-4.091c3.374-0.961,6.947-1.448,10.619-1.448c3.128,0,6.235,0.35,9.235,1.04
					c3.001,0.692,5.866,1.718,8.515,3.051c2.651,1.334,5.133,2.995,7.379,4.937c2.257,1.951,4.218,4.239,5.828,6.798
					c1.609,2.559,2.887,5.423,3.798,8.512c0.914,3.096,1.377,6.495,1.377,10.104c0,3.651-0.533,7.086-1.585,10.209
					c-1.056,3.13-2.524,5.884-4.366,8.184c-1.854,2.319-4.076,4.165-6.603,5.487c-2.545,1.334-5.326,2.01-8.266,2.01
					c-2.651,0-4.913-0.654-6.724-1.945c-1.449-1.034-2.505-2.518-3.152-4.427c-1.706,2.006-3.547,3.507-5.488,4.47
					c-2.343,1.162-4.902,1.752-7.604,1.752c-2.103,0-3.977-0.378-5.573-1.122c-1.6-0.746-2.954-1.794-4.024-3.114
					c-1.061-1.309-1.857-2.872-2.366-4.646c-0.5-1.737-0.753-3.646-0.753-5.673c0-2.904,0.562-5.871,1.67-8.82
					c1.11-2.954,2.788-5.663,4.989-8.052c2.202-2.39,4.976-4.361,8.244-5.86c3.277-1.502,7.125-2.263,11.435-2.263
					c2.333,0,4.415,0.19,6.188,0.564c1.767,0.374,3.474,0.909,5.075,1.59l0.661,0.28l-4.853,18.794
					c-0.608,2.338-0.909,4.247-0.893,5.671c0.015,1.365,0.224,2.432,0.621,3.17c0.369,0.686,0.86,1.137,1.501,1.38
					c0.728,0.277,1.548,0.417,2.439,0.417c1.389,0,2.733-0.415,3.996-1.233c1.299-0.84,2.461-2.059,3.452-3.624
					c1.011-1.595,1.83-3.533,2.435-5.762c0.608-2.239,0.916-4.741,0.916-7.438c0-4.375-0.705-8.263-2.097-11.558
					c-1.386-3.281-3.321-6.041-5.752-8.202c-2.439-2.168-5.36-3.825-8.682-4.928c-3.346-1.11-7.038-1.672-10.973-1.672
					c-4.272,0-8.324,0.821-12.046,2.441c-3.725,1.622-7.005,3.892-9.749,6.749c-2.747,2.86-4.948,6.293-6.541,10.201
					c-1.592,3.908-2.399,8.21-2.399,12.786c0,5.433,0.865,10.277,2.571,14.396c1.703,4.112,4.052,7.586,6.983,10.324
					c2.935,2.742,6.441,4.84,10.42,6.236c4.001,1.403,8.357,2.115,12.948,2.115c4.937,0,9.345-0.525,13.102-1.56
					c3.753-1.036,6.977-2.36,9.584-3.937c0.945-0.559,1.806-0.719,2.57-0.479c0.778,0.243,1.356,0.824,1.718,1.727l1.582,4.22
					l-0.555,0.367c-3.564,2.353-7.718,4.26-12.347,5.67C294.946,125.24,289.679,125.955,283.923,125.955z M281.736,46.162
					c-3.518,0-6.937,0.466-10.162,1.385c-3.223,0.918-6.266,2.235-9.044,3.914c-2.773,1.676-5.343,3.722-7.639,6.081
					c-2.292,2.357-4.273,4.993-5.889,7.834c-1.615,2.844-2.884,5.941-3.772,9.204c-0.888,3.258-1.339,6.68-1.339,10.172
					c0,6.19,1.024,11.795,3.044,16.657c2.016,4.857,4.843,9.026,8.403,12.392c3.564,3.369,7.826,5.986,12.667,7.778
					c4.856,1.797,10.211,2.708,15.918,2.708c5.592,0,10.695-0.691,15.169-2.052c4.235-1.289,8.052-3.006,11.357-5.106l-1.106-2.952
					c-0.244-0.608-0.558-0.706-0.661-0.738c-0.366-0.117-0.863,0.11-1.216,0.318c-2.73,1.651-6.097,3.036-9.996,4.113
					c-3.902,1.076-8.46,1.621-13.546,1.621c-4.779,0-9.321-0.744-13.5-2.21c-4.199-1.473-7.902-3.69-11.007-6.591
					c-3.106-2.902-5.591-6.57-7.385-10.904c-1.791-4.323-2.698-9.381-2.698-15.035c0-4.794,0.849-9.307,2.522-13.415
					c1.673-4.106,3.989-7.715,6.883-10.728c2.898-3.016,6.359-5.413,10.287-7.123c3.933-1.712,8.209-2.579,12.711-2.579
					c4.114,0,7.982,0.591,11.498,1.757c3.538,1.174,6.655,2.946,9.265,5.265c2.618,2.327,4.697,5.288,6.18,8.8
					c1.478,3.5,2.228,7.607,2.228,12.206c0,2.844-0.328,5.493-0.974,7.874c-0.648,2.39-1.535,4.483-2.636,6.218
					c-1.121,1.771-2.452,3.161-3.955,4.132c-1.537,0.995-3.187,1.5-4.902,1.5c-1.094,0-2.114-0.177-3.031-0.526
					c-1.017-0.386-1.817-1.109-2.377-2.149c-0.534-0.991-0.802-2.28-0.821-3.942c-0.018-1.572,0.301-3.627,0.946-6.108l4.491-17.392
					c-1.308-0.511-2.686-0.921-4.104-1.222c-1.66-0.351-3.626-0.529-5.843-0.529c-4.069,0-7.682,0.71-10.74,2.112
					c-3.066,1.406-5.661,3.247-7.713,5.474c-2.055,2.231-3.621,4.756-4.655,7.508c-1.037,2.76-1.563,5.53-1.563,8.233
					c0,1.871,0.232,3.625,0.689,5.213c0.447,1.558,1.139,2.921,2.058,4.055c0.909,1.121,2.065,2.014,3.434,2.653
					c1.373,0.641,3.011,0.966,4.868,0.966c2.443,0,4.752-0.531,6.863-1.578c2.108-1.047,4.107-2.829,5.941-5.294l1.123-1.51
					l0.364,1.846c0.452,2.291,1.435,3.99,2.922,5.05c1.522,1.085,3.459,1.635,5.756,1.635c2.667,0,5.188-0.612,7.493-1.819
					c2.322-1.215,4.365-2.914,6.074-5.051c1.72-2.149,3.095-4.731,4.088-7.675c0.994-2.951,1.498-6.207,1.498-9.676
					c0-3.449-0.44-6.69-1.309-9.632c-0.868-2.943-2.083-5.666-3.61-8.096c-1.522-2.419-3.375-4.581-5.507-6.425
					c-2.142-1.852-4.51-3.436-7.038-4.708c-2.53-1.273-5.269-2.254-8.14-2.915C287.72,46.497,284.739,46.162,281.736,46.162z
					 M275.969,98.313c-2.32,0-4.108-0.805-5.313-2.393c-1.152-1.517-1.736-3.552-1.736-6.048c0-2.314,0.428-4.613,1.273-6.833
					c0.844-2.223,2.042-4.217,3.562-5.925c1.52-1.71,3.351-3.113,5.443-4.168c2.112-1.066,4.455-1.606,6.963-1.606
					c1.441,0,2.837,0.14,4.149,0.415l0.853,0.179l-3.946,15.362c-0.549,2.127-1.249,3.907-2.081,5.292
					c-0.836,1.394-1.754,2.531-2.728,3.382c-0.994,0.867-2.065,1.484-3.183,1.833C278.14,98.141,277.045,98.313,275.969,98.313z
					 M286.161,73.008c-2.245,0-4.335,0.481-6.212,1.427c-1.903,0.96-3.568,2.234-4.947,3.786c-1.384,1.556-2.477,3.377-3.249,5.41
					c-0.772,2.031-1.164,4.131-1.164,6.241c0,2.124,0.47,3.82,1.396,5.04c0.885,1.166,2.188,1.733,3.984,1.733
					c0.907,0,1.835-0.146,2.759-0.434c0.895-0.279,1.764-0.783,2.583-1.497c0.843-0.735,1.648-1.739,2.395-2.983
					c0.75-1.249,1.387-2.88,1.896-4.85l3.506-13.65C288.163,73.083,287.175,73.008,286.161,73.008z"/>
			</g>
			<g>
				<path class="st0" d="M342.461,57.716c1.638-1.944,3.39-3.723,5.259-5.335c1.867-1.612,3.877-2.994,6.026-4.146
					c2.15-1.151,4.439-2.046,6.871-2.687c2.429-0.639,5.028-0.959,7.792-0.959c4.453,0,8.483,0.871,12.091,2.61
					c3.608,1.741,6.691,4.299,9.251,7.678c2.559,3.378,4.541,7.549,5.95,12.513c1.407,4.965,2.111,10.671,2.111,17.119
					c0,5.785-0.781,11.145-2.341,16.084c-1.562,4.94-3.788,9.226-6.679,12.859c-2.892,3.634-6.423,6.487-10.594,8.56
					c-4.172,2.072-8.867,3.108-14.087,3.108c-4.658,0-8.65-0.767-11.976-2.303c-3.328-1.535-6.295-3.685-8.905-6.449v33.856h-14.97
					V46.048h8.982c2.098,0,3.404,0.997,3.916,2.993L342.461,57.716z M343.229,104.854c2.456,3.224,5.105,5.477,7.945,6.755
					c2.841,1.28,6.026,1.919,9.558,1.919c6.858,0,12.169-2.468,15.93-7.408c3.761-4.938,5.643-12.141,5.643-21.61
					c0-4.964-0.422-9.199-1.267-12.705c-0.845-3.505-2.072-6.372-3.685-8.598c-1.612-2.227-3.596-3.864-5.949-4.913
					c-2.355-1.048-5.016-1.574-7.985-1.574c-4.35,0-8.126,0.972-11.323,2.917c-3.199,1.946-6.155,4.709-8.867,8.291V104.854z"/>
			</g>
			<g>
				<rect x="415.316" y="46.048" class="st0" width="14.97" height="77.998"/>
			</g>
			<g>
				<path class="st0" d="M476.425,125.274c-6.295,0-11.145-1.766-14.548-5.298c-3.404-3.531-5.105-8.572-5.105-15.124V58.177h-9.059
					c-0.871,0-1.6-0.269-2.188-0.806c-0.589-0.537-0.882-1.343-0.882-2.418v-6.065l12.667-1.766l3.378-23.262
					c0.204-0.869,0.601-1.547,1.19-2.034c0.588-0.486,1.344-0.729,2.265-0.729h7.6v26.178h22.11v10.901h-22.11v45.679
					c0,3.071,0.755,5.362,2.264,6.87c1.51,1.51,3.442,2.264,5.796,2.264c1.382,0,2.572-0.178,3.57-0.537
					c0.998-0.357,1.854-0.754,2.571-1.189c0.716-0.435,1.33-0.832,1.842-1.19c0.511-0.358,0.972-0.538,1.382-0.538
					c0.511,0,0.909,0.116,1.19,0.346c0.281,0.23,0.576,0.602,0.883,1.113l4.453,7.217c-2.457,2.253-5.373,3.992-8.752,5.221
					C483.565,124.66,480.058,125.274,476.425,125.274"/>
			</g>
			<g>
				<path class="st0" d="M505.597,56.949c4.349-4.145,9.071-7.242,14.165-9.289c5.091-2.047,10.683-3.071,16.774-3.071
					c4.452,0,8.393,0.729,11.822,2.188c3.429,1.459,6.321,3.493,8.675,6.103c2.354,2.61,4.132,5.733,5.336,9.367
					c1.202,3.635,1.804,7.652,1.804,12.053v49.747h-6.679c-1.485,0-2.61-0.243-3.379-0.73c-0.767-0.485-1.382-1.394-1.842-2.725
					l-1.612-6.833c-1.996,1.843-3.967,3.468-5.911,4.875c-1.946,1.409-3.98,2.61-6.103,3.609c-2.124,0.997-4.388,1.753-6.794,2.264
					c-2.406,0.511-5.067,0.768-7.985,0.768c-3.071,0-5.95-0.422-8.636-1.267c-2.687-0.845-5.029-2.137-7.025-3.877
					c-1.996-1.739-3.57-3.915-4.721-6.525c-1.152-2.61-1.728-5.654-1.728-9.136c0-3.071,0.832-6.026,2.495-8.866
					c1.663-2.841,4.376-5.386,8.138-7.639c3.761-2.252,8.674-4.094,14.74-5.528c6.064-1.432,13.523-2.251,22.378-2.457v-5.68
					c0-5.885-1.254-10.287-3.761-13.205c-2.509-2.917-6.193-4.376-11.055-4.376c-3.277,0-6.027,0.41-8.253,1.228
					c-2.226,0.819-4.146,1.727-5.758,2.725c-1.612,0.997-3.021,1.907-4.223,2.725c-1.203,0.82-2.444,1.228-3.723,1.228
					c-1.025,0-1.907-0.281-2.649-0.845c-0.742-0.562-1.344-1.228-1.804-1.996L505.597,56.949z M549.509,89.423
					c-6.091,0.205-11.26,0.679-15.507,1.42c-4.249,0.742-7.704,1.727-10.364,2.956c-2.662,1.228-4.581,2.675-5.758,4.338
					c-1.178,1.663-1.766,3.519-1.766,5.565c0,1.946,0.319,3.621,0.96,5.028c0.639,1.409,1.509,2.56,2.61,3.455
					c1.099,0.896,2.392,1.548,3.876,1.957c1.484,0.41,3.096,0.614,4.836,0.614c2.304,0,4.414-0.23,6.334-0.691
					c1.919-0.46,3.723-1.113,5.412-1.957c1.689-0.845,3.301-1.882,4.837-3.109c1.535-1.228,3.044-2.636,4.529-4.223V89.423z"/>
			</g>
			<g>
				<rect x="584.593" y="10.734" class="st0" width="15.047" height="113.312"/>
			</g>
			<g>
				<path class="st3" d="M442.057,19.255c0,10.634-8.621,19.255-19.255,19.255c-10.634,0-19.255-8.621-19.255-19.255
					C403.546,8.621,412.167,0,422.802,0C433.436,0,442.057,8.621,442.057,19.255"/>
			</g>
		</g>
		<g>
			<g>
				<path class="st4" d="M167.069,19.255c0,10.634-8.621,19.255-19.255,19.255c-10.634,0-19.255-8.621-19.255-19.255
					C128.559,8.621,137.18,0,147.814,0C158.448,0,167.069,8.621,167.069,19.255"/>
			</g>
			<g>
				<path class="st5" d="M133.566,26.965l8.452,5.991c0,0,6.61-15.216,19.077-23.623l-3.253-3.285c0,0-12.107,7.938-16.656,20.292
					l-4.671-4.686L133.566,26.965z"/>
			</g>
			<g>
				<polygon class="st0" points="141.102,47.276 141.102,58.177 141.102,61.152 141.102,124.046 156.149,124.046 156.149,47.276 
									"/>
			</g>
			<g>
				<path class="st6" d="M90.894,23.861c0.204-0.87,0.601-1.547,1.19-2.034C91.496,22.314,91.099,22.991,90.894,23.861"/>
			</g>
			<g>
				<path class="st0" d="M101.95,47.276V21.097h-7.6c-0.922,0-1.677,0.244-2.265,0.73c-0.588,0.487-0.986,1.164-1.19,2.034
					l-3.301,23.262L74.85,48.888v6.065c0,1.075,0.294,1.881,0.882,2.418c0.588,0.538,1.318,0.806,2.188,0.806h9.059v46.676
					c0,6.552,1.701,11.592,5.105,15.124c1.702,1.766,3.765,3.09,6.19,3.973c2.424,0.883,5.211,1.324,8.358,1.324
					c3.634,0,7.14-0.615,10.517-1.842c3.378-1.228,6.295-2.968,8.752-5.221l-4.453-7.217c-0.153-0.255-0.304-0.476-0.451-0.661
					c-0.148-0.186-0.292-0.336-0.432-0.451c-0.281-0.23-0.679-0.346-1.19-0.346c-0.409,0-0.871,0.18-1.382,0.538
					c-0.512,0.359-1.126,0.756-1.842,1.19c-0.717,0.435-1.573,0.831-2.571,1.189c-0.998,0.359-2.188,0.537-3.57,0.537
					c-2.354,0-4.287-0.754-5.796-2.264c-1.51-1.509-2.264-3.8-2.264-6.87V58.177h22.11V47.276H101.95z"/>
			</g>
		</g>
	</g>
	<g>
		<path class="st7" d="M422.678,34.504h-1.451l0.143-4.097c-0.329-0.037-0.643-0.089-0.939-0.156
			c-0.674-0.151-1.307-0.375-1.882-0.666c-0.573-0.29-1.106-0.647-1.584-1.063c-0.45-0.391-0.887-0.84-1.301-1.334l-0.731-0.872
			l0.862-0.873c0.101-0.099,0.17-0.157,0.227-0.199c0.254-0.181,0.535-0.267,0.851-0.267c0.646,0,1.06,0.454,1.196,0.603
			c0.106,0.116,0.252,0.263,0.434,0.44c0.178,0.174,0.397,0.362,0.652,0.569c0.216,0.173,0.489,0.34,0.81,0.494
			c0.337,0.162,0.733,0.301,1.18,0.415c0.1,0.025,0.204,0.048,0.314,0.067l0.326-9.095c-0.401-0.141-0.796-0.291-1.182-0.446
			c-0.754-0.304-1.439-0.698-2.035-1.172c-0.641-0.508-1.16-1.141-1.542-1.88c-0.392-0.756-0.592-1.685-0.592-2.759
			c0-0.843,0.159-1.667,0.472-2.448c0.318-0.792,0.788-1.499,1.397-2.102c0.604-0.597,1.345-1.08,2.203-1.437
			c0.53-0.22,1.108-0.378,1.729-0.472l0.068-1.829c-0.001-0.81,0.618-1.455,1.438-1.455h1.457l-0.128,3.292
			c0.687,0.105,1.327,0.287,1.912,0.543c0.935,0.409,1.819,1.045,2.627,1.89l0.696,0.727l-0.599,0.891
			c-0.256,0.424-0.713,0.683-1.219,0.683c-0.629,0-1.075-0.403-1.355-0.705c-0.088-0.095-0.266-0.259-0.615-0.501
			c-0.276-0.191-0.648-0.378-1.108-0.554c-0.131-0.05-0.276-0.093-0.433-0.129l-0.278,7.818c0.449,0.153,0.894,0.311,1.335,0.474
			c0.811,0.3,1.554,0.683,2.208,1.137c0.718,0.502,1.302,1.136,1.74,1.888c0.46,0.79,0.693,1.767,0.693,2.902
			c0,1.023-0.172,1.996-0.51,2.893c-0.344,0.914-0.858,1.73-1.525,2.423c-0.665,0.689-1.481,1.246-2.427,1.654
			c-0.613,0.265-1.284,0.452-2.005,0.56l-0.089,2.687C424.116,33.859,423.498,34.504,422.678,34.504z M421.616,32.954
			c-0.001,0.016-0.002,0.033-0.002,0.049L421.616,32.954z M424.587,19.403l-0.28,8.081c0.268-0.068,0.522-0.155,0.76-0.26
			c0.6-0.265,1.108-0.614,1.512-1.037c0.406-0.428,0.709-0.909,0.922-1.471c0.215-0.566,0.323-1.18,0.323-1.826
			c0-0.627-0.109-1.133-0.323-1.504c-0.24-0.415-0.545-0.751-0.933-1.029c-0.439-0.313-0.95-0.578-1.52-0.786
			C424.896,19.513,424.742,19.458,424.587,19.403z M422.139,8.643c-0.19,0.049-0.37,0.109-0.54,0.178
			c-0.516,0.213-0.952,0.493-1.294,0.832c-0.343,0.338-0.592,0.713-0.764,1.147v0.001c-0.178,0.45-0.265,0.907-0.265,1.397
			c0,0.573,0.094,1.047,0.281,1.405c0.202,0.389,0.462,0.708,0.794,0.974c0.372,0.298,0.812,0.552,1.308,0.755
			c0.077,0.032,0.155,0.064,0.234,0.095L422.139,8.643z M424.802,3.973L424.8,4.029C424.802,4.01,424.802,3.992,424.802,3.973z"/>
	</g>
</g>
</svg>