<!-- Generator: Adobe Illustrator 20.1.0, SVG Export Plug-In  -->
<svg version="1.1"
	 xmlns="http://www.w3.org/2000/svg" xmlns:xlink="http://www.w3.org/1999/xlink" xmlns:a="http://ns.adobe.com/AdobeSVGViewerExtensions/3.0/"
	 x="0px" y="0px" width="175.847px" height="44.054px" viewBox="0 0 175.847 44.054"
	 style="enable-background:new 0 0 175.847 44.054;" xml:space="preserve">
<style type="text/css">
	.st0{fill:#FFFFFF;}
	.st1{fill:#0033A0;}
	.st2{fill:#CF0A2C;}
	.st3{fill-rule:evenodd;clip-rule:evenodd;fill:#FFFFFF;}
	.st4{fill:#FEEB1A;}
</style>
<defs>
</defs>
<g>
	<g>
		<polygon class="st0" points="20.059,32.482 20.036,36.377 0,36.377 0,4.048 20.036,4.048 20.036,7.943 4.818,7.943 4.818,18.187 
			17.065,18.187 17.065,21.946 4.818,21.946 4.818,32.482 		"/>
	</g>
	<g>
		<path class="st0" d="M68.191,17.781c-0.135,0.165-0.267,0.297-0.394,0.394c-0.128,0.098-0.312,0.146-0.552,0.146
			c-0.24,0-0.492-0.094-0.754-0.282c-0.263-0.187-0.593-0.39-0.991-0.608c-0.398-0.217-0.878-0.42-1.441-0.608
			c-0.563-0.187-1.257-0.281-2.083-0.281c-1.081,0-2.034,0.195-2.859,0.585c-0.825,0.391-1.512,0.946-2.06,1.666
			c-0.548,0.721-0.965,1.599-1.25,2.634c-0.285,1.036-0.428,2.199-0.428,3.49c0,1.336,0.15,2.525,0.45,3.568
			c0.3,1.043,0.728,1.921,1.283,2.634c0.555,0.713,1.23,1.253,2.026,1.621c0.795,0.368,1.68,0.552,2.657,0.552
			c0.946,0,1.726-0.116,2.341-0.349c0.615-0.232,1.126-0.484,1.531-0.754c0.405-0.27,0.743-0.521,1.013-0.754
			c0.27-0.233,0.548-0.349,0.833-0.349c0.36,0,0.638,0.135,0.833,0.405l1.261,1.621c-0.526,0.645-1.115,1.193-1.768,1.643
			c-0.653,0.45-1.347,0.818-2.082,1.103c-0.736,0.285-1.505,0.495-2.308,0.63c-0.803,0.135-1.617,0.203-2.443,0.203
			c-1.426,0-2.758-0.263-3.996-0.788c-1.238-0.525-2.311-1.291-3.219-2.296c-0.908-1.005-1.625-2.24-2.15-3.704
			c-0.525-1.463-0.788-3.125-0.788-4.987c0-1.696,0.236-3.265,0.709-4.705c0.473-1.441,1.171-2.682,2.094-3.726
			c0.923-1.043,2.06-1.861,3.411-2.454c1.351-0.593,2.897-0.889,4.638-0.889c1.636,0,3.077,0.263,4.323,0.788
			c1.246,0.526,2.356,1.269,3.332,2.229L68.191,17.781z"/>
	</g>
	<path class="st0" d="M87.866,19.812l-0.194-0.082c-0.47-0.2-0.97-0.357-1.488-0.466c-0.52-0.11-1.131-0.166-1.815-0.166
		c-1.264,0-2.392,0.223-3.353,0.664c-0.958,0.439-1.772,1.018-2.418,1.718c-0.645,0.701-1.138,1.495-1.463,2.361
		c-0.325,0.865-0.49,1.735-0.49,2.586c0,0.594,0.074,1.154,0.221,1.664c0.149,0.52,0.382,0.979,0.694,1.362
		c0.314,0.387,0.711,0.694,1.18,0.913c0.468,0.218,1.018,0.329,1.634,0.329c0.793,0,1.543-0.173,2.23-0.514
		c0.569-0.283,1.109-0.723,1.609-1.311c0.19,0.56,0.499,0.995,0.924,1.298c0.531,0.379,1.194,0.57,1.972,0.57
		c0.862,0,1.678-0.198,2.424-0.589c0.741-0.388,1.393-0.929,1.936-1.609c0.54-0.675,0.971-1.482,1.28-2.4
		c0.308-0.916,0.465-1.923,0.465-2.994c0-1.058-0.136-2.055-0.404-2.963c-0.267-0.906-0.642-1.746-1.114-2.496
		c-0.472-0.751-1.047-1.421-1.709-1.994c-0.658-0.569-1.387-1.056-2.164-1.448c-0.777-0.391-1.617-0.692-2.497-0.895
		c-0.88-0.202-1.791-0.305-2.708-0.305c-1.077,0-2.125,0.143-3.114,0.425c-0.987,0.281-1.919,0.685-2.771,1.2
		c-0.849,0.513-1.635,1.139-2.338,1.861c-0.701,0.721-1.307,1.528-1.802,2.397c-0.494,0.87-0.882,1.816-1.153,2.812
		c-0.272,0.997-0.41,2.044-0.41,3.111c0,1.88,0.313,3.587,0.93,5.072c0.618,1.488,1.486,2.767,2.58,3.802
		c1.093,1.034,2.399,1.836,3.881,2.384c1.479,0.547,3.106,0.825,4.838,0.825c1.688,0,3.233-0.21,4.591-0.623
		c1.357-0.413,2.576-0.973,3.621-1.663l0.163-0.107l-0.464-1.237c-0.106-0.265-0.276-0.435-0.504-0.507
		c-0.224-0.07-0.476-0.023-0.754,0.14c-0.765,0.462-1.71,0.851-2.811,1.155c-1.102,0.304-2.395,0.458-3.842,0.458
		c-1.346,0-2.624-0.209-3.797-0.62c-1.167-0.409-2.195-1.025-3.056-1.829c-0.859-0.803-1.548-1.822-2.048-3.028
		c-0.5-1.208-0.754-2.628-0.754-4.222c0-1.342,0.237-2.604,0.703-3.75c0.467-1.146,1.113-2.153,1.918-2.992
		c0.805-0.838,1.767-1.504,2.859-1.979c1.091-0.475,2.28-0.716,3.533-0.716c1.154,0,2.237,0.165,3.218,0.49
		c0.974,0.323,1.831,0.81,2.546,1.445c0.713,0.634,1.28,1.443,1.687,2.405c0.408,0.966,0.615,2.106,0.615,3.389
		c0,0.791-0.09,1.525-0.269,2.181c-0.177,0.654-0.417,1.222-0.714,1.69c-0.291,0.459-0.631,0.817-1.012,1.063
		c-0.37,0.24-0.765,0.362-1.172,0.362c-0.261,0-0.502-0.041-0.715-0.122c-0.188-0.071-0.332-0.204-0.44-0.405
		c-0.116-0.216-0.178-0.529-0.182-0.93c-0.005-0.418,0.083-0.977,0.262-1.663L87.866,19.812z M84.782,21.475l-1.028,4.003
		c-0.149,0.578-0.336,1.056-0.556,1.422c-0.219,0.365-0.455,0.659-0.702,0.875c-0.24,0.209-0.495,0.357-0.757,0.439
		c-0.271,0.085-0.543,0.127-0.809,0.127c-0.527,0-0.909-0.166-1.168-0.508c-0.272-0.358-0.409-0.855-0.409-1.478
		c0-0.619,0.115-1.235,0.341-1.83c0.226-0.596,0.547-1.13,0.953-1.586c0.405-0.455,0.893-0.829,1.451-1.11
		c0.55-0.278,1.163-0.418,1.822-0.418C84.215,21.41,84.505,21.432,84.782,21.475z"/>
	<g>
		<path class="st0" d="M100.428,16.926c0.48-0.57,0.994-1.092,1.542-1.565c0.548-0.473,1.137-0.878,1.767-1.216
			c0.631-0.338,1.302-0.6,2.015-0.788c0.712-0.187,1.475-0.281,2.285-0.281c1.306,0,2.488,0.255,3.546,0.765
			c1.058,0.51,1.962,1.261,2.713,2.252c0.75,0.991,1.332,2.214,1.745,3.67c0.413,1.456,0.619,3.129,0.619,5.02
			c0,1.696-0.229,3.268-0.687,4.717c-0.458,1.449-1.111,2.705-1.959,3.771c-0.848,1.066-1.884,1.902-3.107,2.51
			c-1.223,0.608-2.6,0.912-4.131,0.912c-1.366,0-2.537-0.225-3.512-0.675c-0.976-0.45-1.846-1.081-2.612-1.891v9.928h-4.39v-30.55
			h2.634c0.615,0,0.998,0.293,1.148,0.878L100.428,16.926z M100.653,30.749c0.72,0.946,1.497,1.606,2.33,1.981
			c0.833,0.375,1.767,0.563,2.803,0.563c2.011,0,3.569-0.724,4.672-2.173c1.103-1.448,1.655-3.56,1.655-6.337
			c0-1.456-0.124-2.698-0.371-3.726c-0.248-1.028-0.608-1.869-1.081-2.522c-0.473-0.653-1.055-1.133-1.745-1.441
			c-0.691-0.307-1.471-0.462-2.342-0.462c-1.276,0-2.383,0.285-3.321,0.856c-0.938,0.571-1.805,1.381-2.6,2.431V30.749z"/>
	</g>
	<g>
		<rect x="121.793" y="13.504" class="st0" width="4.39" height="22.873"/>
	</g>
	<g>
		<path class="st0" d="M139.713,36.737c-1.846,0-3.268-0.518-4.266-1.554c-0.998-1.036-1.497-2.514-1.497-4.435V17.061h-2.657
			c-0.255,0-0.469-0.079-0.642-0.236c-0.173-0.158-0.259-0.394-0.259-0.709v-1.779l3.715-0.518l0.991-6.822
			c0.06-0.255,0.176-0.454,0.349-0.597c0.172-0.143,0.394-0.214,0.664-0.214h2.229v7.677h6.484v3.197h-6.484v13.395
			c0,0.901,0.221,1.572,0.664,2.015c0.443,0.443,1.009,0.664,1.7,0.664c0.405,0,0.754-0.052,1.047-0.158
			c0.293-0.105,0.544-0.221,0.754-0.349c0.21-0.127,0.39-0.244,0.54-0.349c0.15-0.105,0.285-0.158,0.405-0.158
			c0.15,0,0.267,0.034,0.349,0.101s0.169,0.177,0.259,0.326l1.306,2.116c-0.721,0.661-1.576,1.171-2.567,1.531
			C141.807,36.557,140.779,36.737,139.713,36.737"/>
	</g>
	<g>
		<path class="st0" d="M148.268,16.7c1.275-1.216,2.66-2.124,4.154-2.724c1.493-0.6,3.133-0.901,4.919-0.901
			c1.306,0,2.461,0.214,3.467,0.642c1.005,0.428,1.854,1.024,2.544,1.79c0.69,0.766,1.212,1.681,1.565,2.747
			c0.352,1.066,0.529,2.244,0.529,3.535v14.588h-1.959c-0.436,0-0.766-0.071-0.991-0.214c-0.225-0.142-0.405-0.409-0.54-0.799
			l-0.473-2.004c-0.585,0.541-1.163,1.017-1.734,1.43c-0.571,0.413-1.167,0.766-1.79,1.058c-0.623,0.293-1.287,0.514-1.992,0.664
			c-0.706,0.15-1.486,0.225-2.342,0.225c-0.9,0-1.745-0.124-2.533-0.372c-0.788-0.248-1.475-0.627-2.06-1.137
			c-0.585-0.51-1.047-1.148-1.385-1.914c-0.338-0.766-0.507-1.658-0.507-2.679c0-0.901,0.244-1.767,0.732-2.6
			c0.488-0.833,1.283-1.579,2.387-2.24c1.103-0.66,2.544-1.201,4.323-1.621c1.778-0.42,3.966-0.66,6.562-0.721v-1.666
			c0-1.726-0.368-3.017-1.103-3.872c-0.736-0.856-1.816-1.283-3.242-1.283c-0.961,0-1.768,0.12-2.42,0.36
			c-0.653,0.24-1.216,0.507-1.689,0.799c-0.473,0.293-0.886,0.559-1.238,0.799c-0.353,0.24-0.717,0.36-1.092,0.36
			c-0.301,0-0.559-0.082-0.777-0.248c-0.218-0.165-0.394-0.36-0.529-0.585L148.268,16.7z M161.146,26.224
			c-1.786,0.06-3.302,0.199-4.548,0.417c-1.246,0.218-2.259,0.507-3.039,0.867c-0.781,0.36-1.343,0.784-1.689,1.272
			c-0.345,0.488-0.518,1.032-0.518,1.632c0,0.571,0.093,1.062,0.281,1.475c0.187,0.413,0.442,0.751,0.766,1.013
			c0.322,0.263,0.701,0.454,1.137,0.574c0.435,0.12,0.908,0.18,1.418,0.18c0.676,0,1.295-0.068,1.858-0.203
			c0.563-0.135,1.092-0.326,1.587-0.574c0.495-0.248,0.968-0.552,1.419-0.912c0.45-0.36,0.893-0.773,1.328-1.238V26.224z"/>
	</g>
	<g>
		<rect x="171.434" y="3.148" class="st0" width="4.413" height="33.229"/>
	</g>
	<g>
		<path class="st1" d="M129.635,5.647c0,3.119-2.528,5.647-5.647,5.647c-3.119,0-5.647-2.528-5.647-5.647
			c0-3.119,2.528-5.647,5.647-5.647C127.107,0,129.635,2.528,129.635,5.647"/>
	</g>
	<g>
		<g>
			<path class="st2" d="M48.994,5.647c0,3.119-2.528,5.647-5.647,5.647c-3.119,0-5.647-2.528-5.647-5.647
				C37.7,2.528,40.228,0,43.347,0C46.466,0,48.994,2.528,48.994,5.647"/>
		</g>
		<g>
			<path class="st3" d="M39.169,7.908l2.478,1.757c0,0,1.938-4.462,5.594-6.927l-0.954-0.963c0,0-3.55,2.328-4.885,5.951
				l-1.37-1.374L39.169,7.908z"/>
		</g>
		<g>
			<polygon class="st0" points="41.379,13.864 41.379,17.061 41.379,17.933 41.379,36.377 45.791,36.377 45.791,13.864 			"/>
		</g>
		<g>
			<path class="st4" d="M26.655,6.997c0.06-0.255,0.176-0.454,0.349-0.597C26.831,6.544,26.715,6.742,26.655,6.997"/>
		</g>
		<g>
			<path class="st0" d="M29.897,13.864V6.187h-2.229c-0.27,0-0.492,0.071-0.664,0.214c-0.172,0.143-0.289,0.341-0.349,0.597
				l-0.968,6.822l-3.737,0.518v1.779c0,0.315,0.086,0.552,0.259,0.709c0.172,0.158,0.386,0.237,0.642,0.237h2.657v13.688
				c0,1.921,0.499,3.4,1.497,4.435c0.499,0.518,1.104,0.906,1.815,1.165c0.711,0.259,1.528,0.388,2.451,0.388
				c1.066,0,2.094-0.18,3.084-0.54c0.991-0.36,1.846-0.87,2.567-1.531l-1.306-2.116c-0.045-0.075-0.089-0.14-0.132-0.194
				c-0.043-0.055-0.086-0.099-0.127-0.132c-0.082-0.068-0.199-0.101-0.349-0.101c-0.12,0-0.255,0.053-0.405,0.158
				c-0.15,0.105-0.33,0.222-0.54,0.349c-0.21,0.128-0.461,0.244-0.754,0.349c-0.293,0.105-0.642,0.158-1.047,0.158
				c-0.69,0-1.257-0.221-1.7-0.664c-0.443-0.442-0.664-1.114-0.664-2.015V17.061h6.484v-3.197H29.897z"/>
		</g>
	</g>
	<g>
		<path class="st0" d="M123.952,10.118h-0.426l0.042-1.201c-0.096-0.011-0.189-0.026-0.275-0.046
			c-0.198-0.044-0.383-0.11-0.552-0.195c-0.168-0.085-0.324-0.19-0.465-0.312c-0.132-0.115-0.26-0.246-0.381-0.391l-0.214-0.256
			l0.253-0.256c0.03-0.029,0.05-0.046,0.067-0.058c0.075-0.053,0.157-0.078,0.25-0.078c0.19,0,0.311,0.133,0.351,0.177
			c0.031,0.034,0.074,0.077,0.127,0.129c0.052,0.051,0.116,0.106,0.191,0.167c0.063,0.051,0.143,0.1,0.238,0.145
			c0.099,0.048,0.215,0.088,0.346,0.122c0.029,0.007,0.06,0.014,0.092,0.02l0.096-2.667c-0.118-0.041-0.233-0.085-0.347-0.131
			c-0.221-0.089-0.422-0.205-0.597-0.344c-0.188-0.149-0.34-0.334-0.452-0.551c-0.115-0.222-0.174-0.494-0.174-0.809
			c0-0.247,0.047-0.489,0.138-0.718c0.093-0.232,0.231-0.44,0.41-0.616c0.177-0.175,0.394-0.317,0.646-0.421
			c0.155-0.065,0.325-0.111,0.507-0.138l0.02-0.536c0-0.237,0.181-0.427,0.422-0.427h0.427l-0.038,0.966
			c0.201,0.031,0.389,0.084,0.561,0.159c0.274,0.12,0.533,0.307,0.77,0.554l0.204,0.213l-0.176,0.261
			c-0.075,0.124-0.209,0.2-0.358,0.2c-0.185,0-0.315-0.118-0.397-0.207c-0.026-0.028-0.078-0.076-0.18-0.147
			c-0.081-0.056-0.19-0.111-0.325-0.163c-0.038-0.015-0.081-0.027-0.127-0.038l-0.082,2.293c0.132,0.045,0.262,0.091,0.391,0.139
			c0.238,0.088,0.456,0.2,0.647,0.333c0.21,0.147,0.382,0.333,0.51,0.554c0.135,0.232,0.203,0.518,0.203,0.851
			c0,0.3-0.05,0.585-0.15,0.848c-0.101,0.268-0.252,0.507-0.447,0.711c-0.195,0.202-0.434,0.365-0.712,0.485
			c-0.18,0.078-0.377,0.133-0.588,0.164l-0.026,0.788C124.374,9.929,124.192,10.118,123.952,10.118z M123.64,9.664
			c0,0.005,0,0.01,0,0.014L123.64,9.664z M124.512,5.69l-0.082,2.37c0.079-0.02,0.153-0.045,0.223-0.076
			c0.176-0.078,0.325-0.18,0.443-0.304c0.119-0.125,0.208-0.267,0.27-0.431c0.063-0.166,0.095-0.346,0.095-0.535
			c0-0.184-0.032-0.332-0.095-0.441c-0.07-0.122-0.16-0.22-0.273-0.302c-0.129-0.092-0.279-0.169-0.446-0.231
			C124.602,5.722,124.557,5.706,124.512,5.69z M123.794,2.535c-0.056,0.014-0.109,0.032-0.158,0.052
			c-0.151,0.062-0.279,0.144-0.38,0.244c-0.101,0.099-0.174,0.209-0.224,0.336v0c-0.052,0.132-0.078,0.266-0.078,0.41
			c0,0.168,0.028,0.307,0.083,0.412c0.059,0.114,0.135,0.208,0.233,0.286c0.109,0.087,0.238,0.162,0.384,0.221
			c0.023,0.009,0.045,0.019,0.069,0.028L123.794,2.535z M124.575,1.165l-0.001,0.016C124.575,1.176,124.575,1.171,124.575,1.165z"/>
	</g>
</g>
</svg>